<svg width="32" height="32" fill="none" xmlns="http://www.w3.org/2000/svg"><path fill="#000" d="M0 0h32v32H0z"/><path d="M0 5a1 1 0 0 1 1-1h3a1 1 0 0 1 .97.758L5.78 8H29a1 1 0 0 1 .97 1.242l-3 12A1 1 0 0 1 26 22H8a1 1 0 0 1-.97-.758L3.22 6H1a1 1 0 0 1-1-1Zm6.28 5 1 4H10v-4H6.28ZM12 10v4h4v-4h-4Zm6 0v4h4v-4h-4Zm6 0v4h2.72l1-4H24Zm2.22 6H24v4h1.22l1-4ZM22 16h-4v4h4v-4Zm-6 0h-4v4h4v-4Zm-6 0H7.78l1 4H10v-4Zm0 10a2 2 0 1 0 0 4 2 2 0 0 0 0-4Zm-4 2a4 4 0 1 1 8 0 4 4 0 0 1-8 0Zm18-2a2 2 0 1 0 0 4 2 2 0 0 0 0-4Zm-4 2a4 4 0 1 1 8 0 4 4 0 0 1-8 0Z" fill="#BABABA"/></svg>