<svg width="30" height="27" viewBox="0 0 30 27" fill="none" xmlns="http://www.w3.org/2000/svg">
<path d="M21.465 26.25C19.4692 25.7315 17.983 24.5864 17.0064 22.8148C16.0297 21 15.5414 18.8611 15.5414 16.3981C15.5414 12.5093 16.7728 9.16049 19.2357 6.35185C21.741 3.5 24.6497 1.38272 27.9618 0L30 3.37037L29.9363 4.01852C28.2803 4.62346 26.8153 5.91975 25.5414 7.90741C24.2675 9.89506 23.6306 11.9691 23.6306 14.1296C23.6306 15.5123 23.9066 16.6574 24.4586 17.5648C25.0106 18.429 25.7749 18.9043 26.7516 18.9907L26.5605 20.287L21.465 26.25ZM5.92357 26.25C3.92781 25.7315 2.44161 24.5864 1.46497 22.8148C0.488323 21 0 18.8611 0 16.3981C0 12.5093 1.23142 9.16049 3.69427 6.35185C6.19957 3.5 9.10828 1.38272 12.4204 0L14.4586 3.37037L14.3949 4.01852C12.7389 4.62346 11.2739 5.91975 10 7.90741C8.72611 9.89506 8.08917 11.9691 8.08917 14.1296C8.08917 15.5123 8.36518 16.6574 8.9172 17.5648C9.46921 18.429 10.2335 18.9043 11.2102 18.9907L11.0191 20.287L5.92357 26.25Z" fill="url(#paint0_linear_151_184)"/>
<defs>
<linearGradient id="paint0_linear_151_184" x1="15" y1="0" x2="15" y2="26.25" gradientUnits="userSpaceOnUse">
<stop stop-color="#BCD9FD"/>
<stop offset="0.0001" stop-color="#B0CCED"/>
<stop offset="1" stop-color="#59A1F7"/>
</linearGradient>
</defs>
</svg>
