<svg width="30" height="27" viewBox="0 0 30 27" fill="none" xmlns="http://www.w3.org/2000/svg">
<path d="M8.53503 26.25C10.5308 25.7315 12.017 24.5864 12.9936 22.8148C13.9703 21 14.4586 18.8611 14.4586 16.3981C14.4586 12.5093 13.2272 9.16049 10.7643 6.35185C8.25902 3.5 5.35032 1.38272 2.03822 0L-1.32007e-07 3.37037L0.0636929 4.01852C1.71975 4.62346 3.18472 5.91975 4.4586 7.90741C5.73249 9.89506 6.36943 11.9691 6.36943 14.1296C6.36943 15.5123 6.09342 16.6574 5.5414 17.5648C4.98938 18.429 4.22505 18.9043 3.24841 18.9907L3.43949 20.287L8.53503 26.25ZM24.0764 26.25C26.0722 25.7315 27.5584 24.5864 28.535 22.8148C29.5117 21 30 18.8611 30 16.3981C30 12.5093 28.7686 9.16049 26.3057 6.35185C23.8004 3.5 20.8917 1.38272 17.5796 0L15.5414 3.37037L15.6051 4.01852C17.2611 4.62346 18.7261 5.91975 20 7.90741C21.2739 9.89506 21.9108 11.9691 21.9108 14.1296C21.9108 15.5123 21.6348 16.6574 21.0828 17.5648C20.5308 18.429 19.7665 18.9043 18.7898 18.9907L18.9809 20.287L24.0764 26.25Z" fill="url(#paint0_linear_151_182)"/>
<defs>
<linearGradient id="paint0_linear_151_182" x1="15" y1="0" x2="15" y2="26.25" gradientUnits="userSpaceOnUse">
<stop stop-color="#BCD9FD"/>
<stop offset="0.0001" stop-color="#B0CCED"/>
<stop offset="1" stop-color="#59A1F7"/>
</linearGradient>
</defs>
</svg>
