<svg width="20" height="20" fill="none" xmlns="http://www.w3.org/2000/svg"><path d="m16 12.7-2-.2a1.7 1.7 0 0 0-1.5.5L11 14.5A12.5 12.5 0 0 1 5.5 9l1.6-1.5c.3-.4.5-1 .4-1.4L7.3 4a1.7 1.7 0 0 0-1.7-1.5H4.2c-1 0-1.7.8-1.7 1.7C3 11.4 8.7 17 15.8 17.5c1 0 1.7-.7 1.7-1.7v-1.4a1.7 1.7 0 0 0-1.5-1.7Z" fill="url(#a)"/><defs><linearGradient id="a" x1="10" y1="2.5" x2="10" y2="17.5" gradientUnits="userSpaceOnUse"><stop stop-color="#BCD9FD"/><stop offset="0" stop-color="#B0CCED"/><stop offset="1" stop-color="#59A1F7"/></linearGradient></defs></svg>