<svg width="200" height="28" fill="none" xmlns="http://www.w3.org/2000/svg"><path d="M0 .372h6.56L12.876 12.1h.27L19.463.372h6.56L15.918 17.975v9.626h-5.816v-9.626L0 .372ZM34.148 28c-2.101 0-3.918-.439-5.451-1.316a9.073 9.073 0 0 1-3.53-3.696c-.83-1.587-1.244-3.426-1.244-5.518 0-2.11.414-3.953 1.244-5.53.83-1.587 2.006-2.82 3.53-3.697 1.533-.886 3.35-1.33 5.45-1.33 2.102 0 3.914.444 5.438 1.33a8.941 8.941 0 0 1 3.543 3.696c.83 1.578 1.245 3.422 1.245 5.531 0 2.092-.415 3.931-1.245 5.518a9.048 9.048 0 0 1-3.543 3.696C38.06 27.56 36.249 28 34.148 28Zm.027-4.387c.956 0 1.754-.266 2.394-.798.64-.54 1.122-1.277 1.447-2.207.334-.93.5-1.99.5-3.178s-.166-2.247-.5-3.177c-.325-.931-.807-1.667-1.447-2.207-.64-.541-1.439-.811-2.394-.811-.965 0-1.777.27-2.435.81-.649.541-1.14 1.277-1.474 2.208-.325.93-.487 1.99-.487 3.177 0 1.188.162 2.247.487 3.178.334.93.825 1.666 1.474 2.207.658.532 1.47.797 2.435.797ZM61.441 18.906V7.179h5.762v20.422h-5.532v-3.71h-.216a6.05 6.05 0 0 1-2.34 2.886c-1.082.727-2.403 1.09-3.963 1.09-1.388 0-2.61-.31-3.665-.93-1.055-.621-1.88-1.503-2.475-2.646-.586-1.144-.884-2.513-.893-4.109V7.18h5.762v11.993c.009 1.205.338 2.158.987 2.858.65.7 1.52 1.05 2.61 1.05.695 0 1.344-.154 1.948-.465a3.688 3.688 0 0 0 1.46-1.409c.38-.62.564-1.387.555-2.3ZM71.812 27.601V7.18h5.586v3.564h.216c.379-1.268 1.014-2.225 1.907-2.872.893-.656 1.92-.984 3.084-.984.288 0 .6.018.933.053.334.036.627.084.88.146v5.026c-.271-.08-.645-.15-1.123-.213a10.263 10.263 0 0 0-1.312-.093c-.848 0-1.605.182-2.272.545a4.053 4.053 0 0 0-1.57 1.49c-.378.638-.567 1.373-.567 2.207V27.6h-5.762ZM102.531 8.203c-.108-1.072-.573-1.905-1.393-2.5-.821-.593-1.934-.89-3.34-.89-.957 0-1.764.133-2.422.399-.658.257-1.163.616-1.515 1.077-.342.46-.514.984-.514 1.569-.018.487.086.913.311 1.276.235.363.555.678.96.944a7.35 7.35 0 0 0 1.407.678c.532.186 1.1.346 1.704.479l2.489.585c1.208.265 2.317.62 3.327 1.063 1.01.443 1.885.989 2.624 1.636a6.802 6.802 0 0 1 1.718 2.286c.415.878.627 1.884.636 3.018-.009 1.667-.442 3.111-1.299 4.335-.847 1.214-2.074 2.158-3.679 2.832-1.596.664-3.521.997-5.775.997-2.236 0-4.184-.337-5.843-1.01-1.65-.674-2.94-1.672-3.868-2.992-.92-1.33-1.402-2.974-1.447-4.933h5.667c.063.913.329 1.675.798 2.287.478.603 1.113 1.06 1.907 1.37.802.3 1.709.451 2.718.451.992 0 1.853-.141 2.584-.425.739-.284 1.312-.678 1.717-1.183a2.702 2.702 0 0 0 .609-1.742c0-.611-.185-1.126-.554-1.542-.361-.417-.893-.771-1.596-1.064-.695-.292-1.547-.558-2.557-.797l-3.016-.745c-2.335-.559-4.18-1.432-5.532-2.62-1.352-1.187-2.024-2.787-2.015-4.799-.009-1.649.438-3.089 1.34-4.32.91-1.233 2.159-2.195 3.746-2.886C94.015.346 95.818 0 97.838 0c2.056 0 3.85.346 5.383 1.037 1.542.691 2.741 1.653 3.597 2.885.857 1.232 1.299 2.66 1.326 4.281h-5.613ZM118.115 15.795V27.6h-5.761V.372h5.599v10.41h.243c.469-1.205 1.227-2.149 2.273-2.831 1.046-.692 2.358-1.037 3.935-1.037 1.443 0 2.701.31 3.774.93 1.082.612 1.921 1.494 2.516 2.646.604 1.143.901 2.513.892 4.108v13.003h-5.761V15.61c.009-1.259-.316-2.238-.974-2.938-.649-.7-1.56-1.05-2.732-1.05-.785 0-1.479.163-2.083.491a3.518 3.518 0 0 0-1.407 1.436c-.333.62-.505 1.37-.514 2.247ZM145.507 28c-2.101 0-3.918-.439-5.451-1.316a9.081 9.081 0 0 1-3.53-3.696c-.829-1.587-1.244-3.426-1.244-5.518 0-2.11.415-3.953 1.244-5.53.83-1.587 2.007-2.82 3.53-3.697 1.533-.886 3.35-1.33 5.451-1.33 2.101 0 3.913.444 5.437 1.33 1.533.878 2.714 2.11 3.544 3.696.829 1.578 1.244 3.422 1.244 5.531 0 2.092-.415 3.931-1.244 5.518a9.05 9.05 0 0 1-3.544 3.696c-1.524.877-3.336 1.316-5.437 1.316Zm.027-4.387c.956 0 1.754-.266 2.394-.798.64-.54 1.123-1.277 1.447-2.207.334-.93.501-1.99.501-3.178s-.167-2.247-.501-3.177c-.324-.931-.807-1.667-1.447-2.207-.64-.541-1.438-.811-2.394-.811-.965 0-1.776.27-2.434.81-.65.541-1.141 1.277-1.475 2.208-.324.93-.487 1.99-.487 3.177 0 1.188.163 2.247.487 3.178.334.93.825 1.666 1.475 2.207.658.532 1.469.797 2.434.797Z" fill="#fff"/><path d="M168.946 28c-2.137 0-3.976-.425-5.518-1.276a8.811 8.811 0 0 1-3.544-3.643c-.829-1.578-1.244-3.444-1.244-5.598 0-2.1.415-3.944 1.244-5.53.83-1.587 1.998-2.824 3.503-3.71 1.515-.886 3.292-1.33 5.329-1.33 1.371 0 2.647.218 3.828.652a8.518 8.518 0 0 1 3.111 1.928c.892.86 1.587 1.941 2.083 3.244.496 1.294.743 2.81.743 4.547v1.556l-24.835.013v-3.524h19.412c0-.815-.18-1.537-.541-2.167a3.846 3.846 0 0 0-1.501-1.475c-.632-.364-1.366-.545-2.205-.545-.875 0-1.65.199-2.326.598a4.219 4.219 0 0 0-1.569 1.582 4.406 4.406 0 0 0-.582 2.194v3.337c0 1.01.19 1.883.568 2.619a4.116 4.116 0 0 0 1.637 1.702c.703.399 1.537.598 2.502.598.64 0 1.226-.089 1.758-.266a3.658 3.658 0 0 0 1.366-.797 3.47 3.47 0 0 0 .866-1.303l5.329.345a7.108 7.108 0 0 1-1.664 3.297c-.829.931-1.902 1.658-3.219 2.18-1.307.515-2.818.772-4.531.772ZM199.527 13.003l-5.275.319a2.656 2.656 0 0 0-.582-1.197 3.082 3.082 0 0 0-1.176-.864c-.478-.221-1.051-.332-1.718-.332-.893 0-1.646.186-2.259.558-.613.364-.92.851-.92 1.463 0 .487.199.9.596 1.236.396.337 1.077.607 2.042.811l3.76.745c2.02.407 3.525 1.063 4.517 1.967.992.904 1.488 2.092 1.488 3.564 0 1.338-.401 2.512-1.204 3.523-.793 1.01-1.884 1.8-3.273 2.366-1.379.559-2.971.838-4.774.838-2.75 0-4.941-.563-6.573-1.689-1.623-1.134-2.575-2.676-2.854-4.626l5.667-.293c.171.825.586 1.454 1.244 1.888.658.426 1.501.638 2.529.638 1.01 0 1.822-.19 2.435-.571.622-.39.938-.891.947-1.503-.009-.514-.23-.935-.663-1.263-.433-.337-1.1-.594-2.002-.77l-3.598-.706c-2.028-.398-3.539-1.09-4.53-2.074-.983-.983-1.475-2.238-1.475-3.762 0-1.312.361-2.442 1.082-3.39.731-.949 1.754-1.68 3.071-2.194 1.325-.514 2.876-.771 4.652-.771 2.624 0 4.689.545 6.195 1.635 1.515 1.09 2.398 2.575 2.651 4.454Z" fill="#fff"/></svg>