<svg width="32" height="32" fill="none" xmlns="http://www.w3.org/2000/svg"><g clip-path="url(#a)"><path d="M16 0 9.4.1C7.7.1 6.5.4 5.5.8c-1 .4-2 1-2.8 1.9-.9.9-1.5 1.8-1.9 2.8-.4 1-.6 2.2-.7 3.9a111.5 111.5 0 0 0 .7 17c.4 1.1 1 2 1.9 3 .9.8 1.8 1.4 2.8 1.8 1 .4 2.2.6 3.9.7a111.5 111.5 0 0 0 17-.7c1.1-.4 2-1 3-1.9.8-.9 1.4-1.8 1.8-2.8.4-1 .6-2.2.7-3.9a111.5 111.5 0 0 0-.7-17c-.4-1.1-1-2-1.9-3A7.8 7.8 0 0 0 26.5.9c-1-.4-2.2-.6-3.9-.7L16 0Zm0 2.9h6.5c1.5.1 2.4.4 3 .6a5 5 0 0 1 1.8 1.2c.5.6.9 1.1 1.2 1.9.2.5.5 1.4.5 3a112 112 0 0 1-.5 15.8 5 5 0 0 1-1.2 1.9 5 5 0 0 1-1.9 1.2c-.5.2-1.4.5-3 .5a112.7 112.7 0 0 1-15.9-.5 5 5 0 0 1-1.8-1.2c-.6-.6-1-1.1-1.2-1.9a9 9 0 0 1-.6-3V9.5a9 9 0 0 1 .6-3c.2-.7.6-1.3 1.2-1.8.5-.6 1-1 1.8-1.2.6-.2 1.4-.5 3-.6H16Zm0 4.9a8.2 8.2 0 1 0 0 16.4 8.2 8.2 0 0 0 0-16.4Zm0 13.5a5.3 5.3 0 1 1 0-10.6 5.3 5.3 0 0 1 0 10.6ZM26.5 7.5a2 2 0 1 1-3.9 0 2 2 0 0 1 3.9 0Z" fill="url(#b)"/></g><defs><linearGradient id="b" x1="16" y1="0" x2="16" y2="32" gradientUnits="userSpaceOnUse"><stop stop-color="#BCD9FD"/><stop offset="0" stop-color="#B0CCED"/><stop offset="1" stop-color="#59A1F7"/></linearGradient><clipPath id="a"><path fill="#fff" d="M0 0h32v32H0z"/></clipPath></defs></svg>