<svg width="20" height="20" fill="none" xmlns="http://www.w3.org/2000/svg"><path d="M10 1.7a6.6 6.6 0 0 0-6.7 6.8c0 2.7 2 5.8 6.2 9.4a.8.8 0 0 0 1 0c4.1-3.6 6.2-6.7 6.2-9.4 0-4.2-3.2-6.8-6.7-6.8Zm0 8.3c-1 0-1.7-.8-1.7-1.7 0-.9.8-1.6 1.7-1.6 1 0 1.7.7 1.7 1.6 0 1-.8 1.7-1.7 1.7Z" fill="url(#a)"/><defs><linearGradient id="a" x1="10" y1="1.7" x2="10" y2="18.1" gradientUnits="userSpaceOnUse"><stop stop-color="#BCD9FD"/><stop offset="0" stop-color="#B0CCED"/><stop offset="1" stop-color="#59A1F7"/></linearGradient></defs></svg>