<svg width="32" height="32" fill="none" xmlns="http://www.w3.org/2000/svg"><path d="M31.3 8.2a4 4 0 0 0-2.8-2.8C26 4.7 16 4.7 16 4.7s-10 0-12.5.7A4 4 0 0 0 .7 8.2C0 10.8 0 16 0 16s0 5.2.7 7.8a4 4 0 0 0 2.8 2.8 95 95 0 0 0 12.5.7s10 0 12.5-.7a4 4 0 0 0 2.8-2.8c.7-2.6.7-7.8.7-7.8s0-5.2-.7-7.8ZM12.7 20.8v-9.6l8.4 4.8-8.4 4.8Z" fill="url(#a)"/><defs><linearGradient id="a" x1="16" y1="4.7" x2="16" y2="27.3" gradientUnits="userSpaceOnUse"><stop stop-color="#BCD9FD"/><stop offset="0" stop-color="#B0CCED"/><stop offset="1" stop-color="#59A1F7"/></linearGradient></defs></svg>